<svg version="1.1" id="Layer_1" xmlns="http://www.w3.org/2000/svg" xmlns:xlink="http://www.w3.org/1999/xlink" x="0px" y="0px"
	 width="100%" viewBox="0 0 1200 1200" enable-background="new 0 0 1200 1200" xml:space="preserve">
<path fill="#000000" opacity="1.000000" stroke="none" 
	d="
M692.000000,1201.000000 
	C461.333344,1201.000000 231.166672,1201.000000 1.000000,1201.000000 
	C1.000000,801.000000 1.000000,401.000000 1.000000,1.000000 
	C401.000000,1.000000 801.000000,1.000000 1201.000000,1.000000 
	C1201.000000,401.000000 1201.000000,801.000000 1201.000000,1201.000000 
	C1031.500000,1201.000000 862.000000,1201.000000 692.000000,1201.000000 
M523.487610,447.010681 
	C523.658630,452.219330 523.416016,457.481445 524.080750,462.626312 
	C525.846680,476.294495 532.989502,487.143219 543.997864,494.869659 
	C561.210205,506.950592 581.490112,511.922424 601.221680,518.159851 
	C607.673950,520.199463 614.147522,523.297180 619.500000,527.371155 
	C624.762878,531.376892 622.490173,538.566345 616.038574,540.449585 
	C604.287415,543.879944 592.848633,541.056641 581.550842,538.078430 
	C566.467896,534.102356 552.426697,527.612671 538.995911,518.804932 
	C530.644043,536.001404 522.468933,552.833923 514.216736,569.825195 
	C519.407898,572.310486 524.452637,574.732056 529.502625,577.142395 
	C550.142273,586.993591 572.158936,591.851868 594.719727,593.832336 
	C611.083191,595.268738 627.461853,593.525269 643.020691,587.882507 
	C659.750366,581.815186 672.645386,571.404297 679.527100,554.191956 
	C683.600891,544.002625 684.223938,533.619263 683.995911,522.974121 
	C683.585571,503.826416 675.234558,489.119995 659.000671,479.028076 
	C644.267273,469.868958 627.786804,465.029022 611.396912,459.866241 
	C603.046021,457.235748 594.893616,453.726257 587.098694,449.739685 
	C584.916626,448.623718 583.525024,444.482269 583.225159,441.578430 
	C582.920044,438.624084 584.573181,435.424988 588.296875,435.003754 
	C595.236267,434.218750 602.497070,432.148926 609.106079,433.384521 
	C625.363892,436.424042 640.425171,443.257599 654.540894,451.620483 
	C662.758972,435.879028 670.923584,420.240112 679.152039,404.478729 
	C678.283752,403.893188 677.672424,403.313568 676.945679,403.015808 
	C664.354736,397.857727 651.947937,392.155304 639.096619,387.751770 
	C623.486328,382.402863 607.395691,379.803040 590.668274,381.878632 
	C578.172913,383.429138 566.345825,386.547638 555.585510,393.093475 
	C535.702026,405.189301 524.875549,422.774109 523.487610,447.010681 
M514.000610,796.500000 
	C514.000610,750.073242 514.000610,703.646545 514.000610,657.284790 
	C457.693207,657.284790 401.957123,657.284790 346.284790,657.284790 
	C346.284790,711.973389 346.284790,766.376221 346.284790,820.715271 
	C402.306732,820.715271 458.042816,820.715271 514.000610,820.715271 
	C514.000610,812.787964 514.000610,805.143982 514.000610,796.500000 
M784.500000,821.000427 
	C808.261902,821.000427 832.023743,821.000427 855.713379,821.000427 
	C855.713379,766.023132 855.713379,711.620422 855.713379,657.286621 
	C799.689819,657.286621 743.953857,657.286621 688.286621,657.286621 
	C688.286621,711.976807 688.286621,766.379578 688.286621,821.000427 
	C720.215515,821.000427 751.857727,821.000427 784.500000,821.000427 
M175.998978,749.500000 
	C175.998978,773.262024 175.998978,797.023987 175.998978,820.713989 
	C231.976593,820.713989 287.379547,820.713989 342.713928,820.713989 
	C342.713928,766.023438 342.713928,711.620422 342.713928,657.286011 
	C287.023438,657.286011 231.620468,657.286011 175.998978,657.286011 
	C175.998978,687.881714 175.998978,718.190857 175.998978,749.500000 
M616.500000,821.000610 
	C639.262024,821.000610 662.024048,821.000610 684.713440,821.000610 
	C684.713440,766.023071 684.713440,711.620239 684.713440,657.286499 
	C628.689697,657.286499 572.953613,657.286499 517.286499,657.286499 
	C517.286499,711.976929 517.286499,766.379761 517.286499,821.000610 
	C550.215454,821.000610 582.857727,821.000610 616.500000,821.000610 
M909.500000,821.000427 
	C948.260559,821.000427 987.021057,821.000427 1025.714600,821.000427 
	C1025.714600,766.025452 1025.714600,711.622742 1025.714600,657.285400 
	C970.025574,657.285400 914.622864,657.285400 859.285522,657.285400 
	C859.285522,711.974487 859.285522,766.377258 859.285522,821.000427 
	C875.880310,821.000427 892.190125,821.000427 909.500000,821.000427 
z"/>
<path fill="#FFFFFF" opacity="1.000000" stroke="none" 
	d="
M523.724365,446.611115 
	C524.875549,422.774109 535.702026,405.189301 555.585510,393.093475 
	C566.345825,386.547638 578.172913,383.429138 590.668274,381.878632 
	C607.395691,379.803040 623.486328,382.402863 639.096619,387.751770 
	C651.947937,392.155304 664.354736,397.857727 676.945679,403.015808 
	C677.672424,403.313568 678.283752,403.893188 679.152039,404.478729 
	C670.923584,420.240112 662.758972,435.879028 654.540894,451.620483 
	C640.425171,443.257599 625.363892,436.424042 609.106079,433.384521 
	C602.497070,432.148926 595.236267,434.218750 588.296875,435.003754 
	C584.573181,435.424988 582.920044,438.624084 583.225159,441.578430 
	C583.525024,444.482269 584.916626,448.623718 587.098694,449.739685 
	C594.893616,453.726257 603.046021,457.235748 611.396912,459.866241 
	C627.786804,465.029022 644.267273,469.868958 659.000671,479.028076 
	C675.234558,489.119995 683.585571,503.826416 683.995911,522.974121 
	C684.223938,533.619263 683.600891,544.002625 679.527100,554.191956 
	C672.645386,571.404297 659.750366,581.815186 643.020691,587.882507 
	C627.461853,593.525269 611.083191,595.268738 594.719727,593.832336 
	C572.158936,591.851868 550.142273,586.993591 529.502625,577.142395 
	C524.452637,574.732056 519.407898,572.310486 514.216736,569.825195 
	C522.468933,552.833923 530.644043,536.001404 538.995911,518.804932 
	C552.426697,527.612671 566.467896,534.102356 581.550842,538.078430 
	C592.848633,541.056641 604.287415,543.879944 616.038574,540.449585 
	C622.490173,538.566345 624.762878,531.376892 619.500000,527.371155 
	C614.147522,523.297180 607.673950,520.199463 601.221680,518.159851 
	C581.490112,511.922424 561.210205,506.950592 543.997864,494.869659 
	C532.989502,487.143219 525.846680,476.294495 524.080750,462.626312 
	C523.416016,457.481445 523.658630,452.219330 523.724365,446.611115 
z"/>
<path fill="#FFFFFF" opacity="1.000000" stroke="none" 
	d="
M514.000610,797.000000 
	C514.000610,805.143982 514.000610,812.787964 514.000610,820.715271 
	C458.042816,820.715271 402.306732,820.715271 346.284790,820.715271 
	C346.284790,766.376221 346.284790,711.973389 346.284790,657.284790 
	C401.957123,657.284790 457.693207,657.284790 514.000610,657.284790 
	C514.000610,703.646545 514.000610,750.073242 514.000610,797.000000 
M417.048065,706.508667 
	C408.609741,730.861389 400.171417,755.214111 391.581451,780.004456 
	C396.019073,780.004456 399.672974,780.004456 403.326904,780.004456 
	C407.138641,780.004456 410.950409,780.004456 414.227081,780.004456 
	C416.650024,774.432373 417.568390,766.984497 421.485352,764.717407 
	C425.974579,762.119080 433.124664,764.111267 439.118652,764.131958 
	C439.603241,764.133667 440.087219,764.312134 440.674744,764.429016 
	C442.320099,769.577515 443.968781,774.736267 445.559143,779.712646 
	C453.367035,779.712646 460.753662,779.712646 468.763214,779.712646 
	C459.298187,752.397034 449.991089,725.537109 440.695679,698.710999 
	C435.813629,698.710999 431.424622,699.185364 427.183167,698.596619 
	C421.247375,697.772705 418.209290,700.064880 417.048065,706.508667 
z"/>
<path fill="#FFFFFF" opacity="1.000000" stroke="none" 
	d="
M784.000000,821.000427 
	C751.857727,821.000427 720.215515,821.000427 688.286621,821.000427 
	C688.286621,766.379578 688.286621,711.976807 688.286621,657.286621 
	C743.953857,657.286621 799.689819,657.286621 855.713379,657.286621 
	C855.713379,711.620422 855.713379,766.023132 855.713379,821.000427 
	C832.023743,821.000427 808.261902,821.000427 784.000000,821.000427 
M744.352417,706.644043 
	C744.352417,731.038025 744.352417,755.432068 744.352417,779.663818 
	C764.143066,779.663818 783.198425,779.663818 802.196289,779.663818 
	C802.196289,772.934326 802.196289,766.560669 802.196289,759.866455 
	C790.365479,759.866455 778.927307,759.866455 767.360046,759.866455 
	C767.360046,755.799316 767.360046,752.070740 767.360046,747.990601 
	C777.043091,747.990601 786.484375,747.990601 796.165161,747.990601 
	C796.165161,741.580811 796.165161,735.530701 796.165161,729.109314 
	C786.364197,729.109314 776.930664,729.109314 767.379272,729.109314 
	C767.379272,725.490295 767.379272,722.252319 767.379272,718.375610 
	C778.848022,718.375610 790.063843,718.375610 801.224854,718.375610 
	C801.224854,711.492188 801.224854,705.256470 801.224854,698.981934 
	C782.158936,698.981934 763.413696,698.981934 744.352478,698.981934 
	C744.352478,701.405823 744.352478,703.548279 744.352417,706.644043 
z"/>
<path fill="#FEFEFE" opacity="1.000000" stroke="none" 
	d="
M175.998978,749.000000 
	C175.998978,718.190857 175.998978,687.881714 175.998978,657.286011 
	C231.620468,657.286011 287.023438,657.286011 342.713928,657.286011 
	C342.713928,711.620422 342.713928,766.023438 342.713928,820.713989 
	C287.379547,820.713989 231.976593,820.713989 175.998978,820.713989 
	C175.998978,797.023987 175.998978,773.262024 175.998978,749.000000 
M284.365448,717.939087 
	C286.264923,714.314331 288.164398,710.689636 290.271027,706.669617 
	C285.697906,704.750916 281.670197,702.796021 277.467621,701.349182 
	C266.505859,697.575317 255.406555,696.052246 244.396912,701.097839 
	C233.906601,705.905457 229.121063,714.433044 228.984161,725.789734 
	C228.855408,736.470459 234.890411,742.632629 244.153824,746.333740 
	C247.692566,747.747620 251.345474,748.875305 254.943329,750.141968 
	C258.072113,751.243469 261.340027,752.080139 264.257812,753.591309 
	C265.562866,754.267151 266.161438,756.307251 267.080597,757.728210 
	C265.763092,758.535645 264.472076,759.967529 263.122711,760.024841 
	C260.004456,760.157349 256.675201,760.187744 253.760498,759.243835 
	C247.505600,757.218201 241.458618,754.550537 234.834320,751.952698 
	C231.786499,758.149109 228.593613,764.640442 225.240646,771.457153 
	C240.034927,779.058594 255.059814,782.932983 271.289276,779.889648 
	C283.462769,777.606873 290.395203,769.797302 291.759674,757.436890 
	C293.028687,745.941101 288.049530,737.893860 276.329437,732.955872 
	C272.363220,731.284790 268.183868,730.123718 264.119324,728.680542 
	C261.154480,727.627869 258.087402,726.741821 255.330353,725.282043 
	C254.149353,724.656738 252.855103,722.633484 253.045212,721.481995 
	C253.236877,720.321045 255.199554,718.623352 256.396423,718.615051 
	C259.814972,718.591187 263.382660,718.840027 266.625977,719.841858 
	C271.303955,721.286865 275.747925,723.489441 280.443542,725.431641 
	C281.730682,722.996521 282.887756,720.807434 284.365448,717.939087 
z"/>
<path fill="#FFFFFF" opacity="1.000000" stroke="none" 
	d="
M616.000000,821.000610 
	C582.857727,821.000610 550.215454,821.000610 517.286499,821.000610 
	C517.286499,766.379761 517.286499,711.976929 517.286499,657.286499 
	C572.953613,657.286499 628.689697,657.286499 684.713440,657.286499 
	C684.713440,711.620239 684.713440,766.023071 684.713440,821.000610 
	C662.024048,821.000610 639.262024,821.000610 616.000000,821.000610 
M614.104370,754.614990 
	C614.104370,763.033020 614.104370,771.451111 614.104370,779.755737 
	C622.070862,779.755737 629.341187,779.755737 636.692444,779.755737 
	C636.692444,752.654358 636.692444,725.802856 636.692444,698.923462 
	C629.087280,698.923462 621.796143,698.923462 613.967041,698.923462 
	C613.967041,708.848755 613.967041,718.573486 613.967041,728.139160 
	C604.991333,728.139160 596.558899,728.139160 587.713989,728.139160 
	C587.713989,718.306091 587.713989,708.725586 587.713989,699.026672 
	C579.911194,699.026672 572.531372,699.026672 565.151123,699.026672 
	C565.151123,726.102905 565.151123,752.860657 565.151123,779.633423 
	C572.726196,779.633423 580.087646,779.633423 587.940063,779.633423 
	C587.940063,769.037109 587.940063,758.803040 587.940063,748.510315 
	C596.861389,748.510315 605.277954,748.510315 614.104370,748.510315 
	C614.104370,750.390442 614.104370,752.020081 614.104370,754.614990 
z"/>
<path fill="#FFFFFF" opacity="1.000000" stroke="none" 
	d="
M909.000000,821.000427 
	C892.190125,821.000427 875.880310,821.000427 859.285522,821.000427 
	C859.285522,766.377258 859.285522,711.974487 859.285522,657.285400 
	C914.622864,657.285400 970.025574,657.285400 1025.714600,657.285400 
	C1025.714600,711.622742 1025.714600,766.025452 1025.714600,821.000427 
	C987.021057,821.000427 948.260559,821.000427 909.000000,821.000427 
M908.360596,768.471313 
	C908.360596,772.246399 908.360596,776.021484 908.360596,779.872437 
	C920.111938,779.872437 931.267761,780.174988 942.399536,779.787537 
	C953.566956,779.398865 963.659668,775.804138 971.128296,766.992920 
	C980.827576,755.549988 982.439453,742.194397 979.316162,728.066467 
	C975.723511,711.815430 965.106140,701.745056 949.058228,699.720215 
	C935.834473,698.051697 922.232666,699.379578 908.360596,699.379578 
	C908.360596,721.951294 908.360596,744.716125 908.360596,768.471313 
z"/>
<path fill="#030303" opacity="1.000000" stroke="none" 
	d="
M417.174591,706.128418 
	C418.209290,700.064880 421.247375,697.772705 427.183167,698.596619 
	C431.424622,699.185364 435.813629,698.710999 440.695679,698.710999 
	C449.991089,725.537109 459.298187,752.397034 468.763214,779.712646 
	C460.753662,779.712646 453.367035,779.712646 445.559143,779.712646 
	C443.968781,774.736267 442.320099,769.577515 440.674744,764.429016 
	C440.087219,764.312134 439.603241,764.133667 439.118652,764.131958 
	C433.124664,764.111267 425.974579,762.119080 421.485352,764.717407 
	C417.568390,766.984497 416.650024,774.432373 414.227081,780.004456 
	C410.950409,780.004456 407.138641,780.004456 403.326904,780.004456 
	C399.672974,780.004456 396.019073,780.004456 391.581451,780.004456 
	C400.171417,755.214111 408.609741,730.861389 417.174591,706.128418 
M429.613525,748.883911 
	C431.925812,748.883911 434.238068,748.883911 436.979706,748.883911 
	C434.796539,741.246826 432.723877,733.996399 430.245300,725.325928 
	C427.668823,733.982849 425.518158,741.209045 423.233978,748.883911 
	C425.452026,748.883911 427.094055,748.883911 429.613525,748.883911 
z"/>
<path fill="#060606" opacity="1.000000" stroke="none" 
	d="
M744.352417,706.167358 
	C744.352478,703.548279 744.352478,701.405823 744.352478,698.981934 
	C763.413696,698.981934 782.158936,698.981934 801.224854,698.981934 
	C801.224854,705.256470 801.224854,711.492188 801.224854,718.375610 
	C790.063843,718.375610 778.848022,718.375610 767.379272,718.375610 
	C767.379272,722.252319 767.379272,725.490295 767.379272,729.109314 
	C776.930664,729.109314 786.364197,729.109314 796.165161,729.109314 
	C796.165161,735.530701 796.165161,741.580811 796.165161,747.990601 
	C786.484375,747.990601 777.043091,747.990601 767.360046,747.990601 
	C767.360046,752.070740 767.360046,755.799316 767.360046,759.866455 
	C778.927307,759.866455 790.365479,759.866455 802.196289,759.866455 
	C802.196289,766.560669 802.196289,772.934326 802.196289,779.663818 
	C783.198425,779.663818 764.143066,779.663818 744.352417,779.663818 
	C744.352417,755.432068 744.352417,731.038025 744.352417,706.167358 
z"/>
<path fill="#030303" opacity="1.000000" stroke="none" 
	d="
M284.205139,718.278687 
	C282.887756,720.807434 281.730682,722.996521 280.443542,725.431641 
	C275.747925,723.489441 271.303955,721.286865 266.625977,719.841858 
	C263.382660,718.840027 259.814972,718.591187 256.396423,718.615051 
	C255.199554,718.623352 253.236877,720.321045 253.045212,721.481995 
	C252.855103,722.633484 254.149353,724.656738 255.330353,725.282043 
	C258.087402,726.741821 261.154480,727.627869 264.119324,728.680542 
	C268.183868,730.123718 272.363220,731.284790 276.329437,732.955872 
	C288.049530,737.893860 293.028687,745.941101 291.759674,757.436890 
	C290.395203,769.797302 283.462769,777.606873 271.289276,779.889648 
	C255.059814,782.932983 240.034927,779.058594 225.240646,771.457153 
	C228.593613,764.640442 231.786499,758.149109 234.834320,751.952698 
	C241.458618,754.550537 247.505600,757.218201 253.760498,759.243835 
	C256.675201,760.187744 260.004456,760.157349 263.122711,760.024841 
	C264.472076,759.967529 265.763092,758.535645 267.080627,757.728210 
	C266.161438,756.307251 265.562866,754.267151 264.257812,753.591309 
	C261.340027,752.080139 258.072113,751.243469 254.943329,750.141968 
	C251.345474,748.875305 247.692566,747.747620 244.153824,746.333740 
	C234.890411,742.632629 228.855408,736.470459 228.984161,725.789734 
	C229.121063,714.433044 233.906601,705.905457 244.396912,701.097839 
	C255.406555,696.052246 266.505859,697.575317 277.467621,701.349182 
	C281.670197,702.796021 285.697906,704.750916 290.271027,706.669617 
	C288.164398,710.689636 286.264923,714.314331 284.205139,718.278687 
z"/>
<path fill="#030303" opacity="1.000000" stroke="none" 
	d="
M614.104370,754.132385 
	C614.104370,752.020081 614.104370,750.390442 614.104370,748.510315 
	C605.277954,748.510315 596.861389,748.510315 587.940063,748.510315 
	C587.940063,758.803040 587.940063,769.037109 587.940063,779.633423 
	C580.087646,779.633423 572.726196,779.633423 565.151123,779.633423 
	C565.151123,752.860657 565.151123,726.102905 565.151123,699.026672 
	C572.531372,699.026672 579.911194,699.026672 587.713989,699.026672 
	C587.713989,708.725586 587.713989,718.306091 587.713989,728.139160 
	C596.558899,728.139160 604.991333,728.139160 613.967041,728.139160 
	C613.967041,718.573486 613.967041,708.848755 613.967041,698.923462 
	C621.796143,698.923462 629.087280,698.923462 636.692444,698.923462 
	C636.692444,725.802856 636.692444,752.654358 636.692444,779.755737 
	C629.341187,779.755737 622.070862,779.755737 614.104370,779.755737 
	C614.104370,771.451111 614.104370,763.033020 614.104370,754.132385 
z"/>
<path fill="#040404" opacity="1.000000" stroke="none" 
	d="
M908.360596,767.976135 
	C908.360596,744.716125 908.360596,721.951294 908.360596,699.379578 
	C922.232666,699.379578 935.834473,698.051697 949.058228,699.720215 
	C965.106140,701.745056 975.723511,711.815430 979.316162,728.066467 
	C982.439453,742.194397 980.827576,755.549988 971.128296,766.992920 
	C963.659668,775.804138 953.566956,779.398865 942.399536,779.787537 
	C931.267761,780.174988 920.111938,779.872437 908.360596,779.872437 
	C908.360596,776.021484 908.360596,772.246399 908.360596,767.976135 
M942.046204,718.850891 
	C938.487122,718.850891 934.927979,718.850891 931.445801,718.850891 
	C931.445801,732.856384 931.445801,746.369812 931.445801,759.859497 
	C948.414246,760.670471 955.397644,756.078125 957.311523,743.097229 
	C959.142151,730.681152 953.834473,721.763489 942.046204,718.850891 
z"/>
<path fill="#FBFBFB" opacity="1.000000" stroke="none" 
	d="
M429.174805,748.883911 
	C427.094055,748.883911 425.452026,748.883911 423.233978,748.883911 
	C425.518158,741.209045 427.668823,733.982849 430.245300,725.325928 
	C432.723877,733.996399 434.796539,741.246826 436.979706,748.883911 
	C434.238068,748.883911 431.925812,748.883911 429.174805,748.883911 
z"/>
<path fill="#FBFBFB" opacity="1.000000" stroke="none" 
	d="
M942.486938,718.890564 
	C953.834473,721.763489 959.142151,730.681152 957.311523,743.097229 
	C955.397644,756.078125 948.414246,760.670471 931.445801,759.859497 
	C931.445801,746.369812 931.445801,732.856384 931.445801,718.850891 
	C934.927979,718.850891 938.487122,718.850891 942.486938,718.890564 
z"/>
</svg>